<?xml version="1.0" standalone="no"?>
<!DOCTYPE svg PUBLIC "-//W3C//DTD SVG 1.1//EN" "http://www.w3.org/Graphics/SVG/1.1/DTD/svg11.dtd" >
<svg xmlns="http://www.w3.org/2000/svg">
<metadata>
Created by FontPrep 20130207 at Mon Sep 16 20:39:17 2013
 By Jakob Viskum Damgaard
Copyright (c) 2010 by Typemade. All rights reserved.
</metadata>
<defs>
<font id="2fc267daae788c3eaddeaf8ca2c759e4" horiz-adv-x='1024' >
  <font-face 
    font-family="JosefinSans-Bold"
    font-weight="700"
    font-stretch="normal"
    units-per-em="2048"
    panose-1="0 0 0 0 0 0 0 0 0 0"
    ascent="1536"
    descent="-512"
    x-height="768"
    cap-height="1434"
    bbox="-117 -512 2144 1909"
    underline-thickness="102"
    underline-position="-102"
    unicode-range="U+0020-203A"
  />
<missing-glyph horiz-adv-x="614" 
 />
    <glyph glyph-name=".notdef" horiz-adv-x="614" 
 />
    <glyph glyph-name=".null" horiz-adv-x="0" 
 />
    <glyph glyph-name="nonmarkingreturn" horiz-adv-x="614" 
 />
    <glyph glyph-name="space" unicode=" " horiz-adv-x="614" 
 />
    <glyph glyph-name="space" unicode="&#xa0;" horiz-adv-x="614" 
 />
    <glyph glyph-name="exclam" unicode="!" horiz-adv-x="411" 
d="M119 1536h170v-1196h-170v1196zM204 0q-40 0 -73 30.5t-33 78t33 77t73 29.5t72.5 -29.5t32.5 -77t-32.5 -78t-72.5 -30.5z" />
    <glyph glyph-name="quotedbl" unicode="&#x22;" horiz-adv-x="686" 
d="M129 967v508h170l-8 -508h-162zM401 967v508h170l-8 -508h-162z" />
    <glyph glyph-name="numbersign" unicode="#" horiz-adv-x="1169" 
d="M788 385l-45 -385h-172q10 98 22.5 192.5t22.5 192.5h-204l-45 -385h-172q10 98 22 192.5t23 192.5h-189l21 166h188l25 209h-187l17 166h188l49 391h172q-12 -98 -24.5 -195.5t-24.5 -195.5h205l49 391h172q-12 -98 -24.5 -195.5t-24.5 -195.5h209q-13 -133 -17 -166
h-210l-25 -209h209l-21 -166h-209zM457 760l-25 -209h205l25 209h-205z" />
    <glyph glyph-name="dollar" unicode="$" horiz-adv-x="1161" 
d="M991 383q0 -156 -95 -261.5t-249 -131.5v-129h-172v131q-179 27 -268.5 108.5t-112.5 116.5l107 107q47 -49 114.5 -101.5t159.5 -70.5v528q-156 62 -238 148t-85 226q-4 140 73 249t250 133v129h172v-131q138 -28 273 -142l-97 -123q-86 74 -176 99v-467
q344 -141 344 -418zM821 386q0 93 -52 145.5t-122 84.5v-456q74 23 124 78t50 148zM322 1057q0 -123 104 -172q17 -10 49 -21v406q-78 -23 -115.5 -82t-37.5 -131z" />
    <glyph glyph-name="percent" unicode="%" horiz-adv-x="1486" 
d="M1153 1024q-423 -708 -610 -1024h-187l611 1024h186zM184 795q0 109 77.5 184.5t184 75.5t185 -76.5t78.5 -183.5t-79 -182.5t-184.5 -75.5t-183.5 74.5t-78 183.5zM356 797q0 -41 25 -68t65.5 -27t65.5 27t25 68t-25 66.5t-65.5 25.5t-65.5 -25.5t-25 -66.5zM807 227
q0 109 78 183.5t184 74.5t184 -76t78 -182t-78 -183t-184.5 -77t-184 75.5t-77.5 184.5zM979 227q0 -41 24.5 -67.5t65.5 -26.5t65.5 26.5t24.5 67.5t-24.5 66.5t-65.5 25.5t-65.5 -25.5t-24.5 -66.5z" />
    <glyph glyph-name="ampersand" unicode="&#x26;" horiz-adv-x="1433" 
d="M701.5 1370q-62.5 0 -89.5 -18q-84 -53 -93 -135t40 -162q78 -125 152.5 -248t152.5 -248q8 135 55.5 173.5t111 37t104.5 -1.5h96v-166h-90q-64 0 -84.5 -35.5t-20.5 -169.5v-14q0 -41 -10 -86l154 -248q-102 -67 -133 -88q-27 41 -51.5 84t-51.5 84
q-123 -147 -308 -147t-303 119.5t-118 275.5t96 267t234 134q-35 59 -72 118.5t-73 119.5q-76 128 -55 259.5t153 211.5q181 111 432 -43q-16 -35 -33.5 -66.5t-34.5 -66.5q-98 59 -160.5 59zM385 390q0 -106 66.5 -174.5t158.5 -68.5q176 0 236 142l-203 332
q-115 0 -186.5 -62.5t-71.5 -168.5z" />
    <glyph glyph-name="quotesingle" unicode="'" horiz-adv-x="333" 
d="M86 967v508h172l-8 -508h-164z" />
    <glyph glyph-name="parenleft" unicode="(" horiz-adv-x="868" 
d="M236 596q0 288 98 536.5t239 395.5q37 -12 75 -23.5t75 -23.5q-216 -249 -265.5 -494.5t-49.5 -456t91.5 -439t223.5 -380.5l-150 -47q-139 143 -238 393.5t-99 538.5z" />
    <glyph glyph-name="parenright" unicode=")" horiz-adv-x="819" 
d="M639 522q0 -221 -98.5 -467.5t-239.5 -396.5q-37 10 -75 21.5t-74 21.5q216 249 265.5 494t49.5 455t-91.5 440.5t-223.5 379.5q13 4 149 52q229 -248 283.5 -513.5t54.5 -486.5z" />
    <glyph glyph-name="asterisk" unicode="*" horiz-adv-x="686" 
d="M262 889v143l-125 -71q-23 37 -43 74.5t-43 74.5q33 16 63.5 34.5t63.5 35.5l-125 75l80 142q33 -18 64.5 -38t64.5 -38v154h172q0 -39 -1 -77t-1 -77q47 26 131 74l82 -142q-35 -18 -66.5 -37.5t-66.5 -37.5l129 -74l-86 -150q-33 18 -63.5 38t-63.5 38l-2 -141h-164z
" />
    <glyph glyph-name="plus" unicode="+" horiz-adv-x="1112" 
d="M459 104v285h-283v166h283v287h172v-287h282v-166h-282v-285h-172z" />
    <glyph glyph-name="comma" unicode="," horiz-adv-x="409" 
d="M4 -246l158 422h172l-176 -422h-154z" />
    <glyph glyph-name="hyphen" unicode="-" horiz-adv-x="614" 
d="M109 301v166h376v-166h-376z" />
    <glyph glyph-name="period" unicode="." horiz-adv-x="333" 
d="M68 106.5q0 47.5 32.5 78t72.5 30.5t73 -30.5t33 -78t-33 -77t-73 -29.5t-72.5 29.5t-32.5 77z" />
    <glyph glyph-name="slash" unicode="/" horiz-adv-x="778" 
d="M776 1507l-569 -1546h-172l569 1546h172z" />
    <glyph glyph-name="zero" unicode="0" horiz-adv-x="1261" 
d="M248 650q0 -92 28.5 -185.5t110 -204t236.5 -110.5q156 0 267 149.5t111 351.5q0 331 -134 431t-238.5 100t-177 -52.5t-117.5 -130t-65.5 -167.5t-20.5 -182zM76 669.5q0 155.5 44 281.5t118.5 214t175 135.5t215 47.5t215 -49.5t174.5 -138.5t115 -216t41 -282.5
t-48.5 -280.5t-126 -214t-176 -136t-203 -47t-203 49t-175 139t-121.5 216t-45 281.5z" />
    <glyph glyph-name="one" unicode="1" horiz-adv-x="559" 
d="M70 1165v166h311v-1331h-172v1165h-139z" />
    <glyph glyph-name="two" unicode="2" horiz-adv-x="1062" 
d="M90 931q0 176 114 296.5t306 120.5t311 -125.5t119 -300.5q0 -257 -170 -460.5t-252 -295.5h498v-166h-907q127 127 245.5 247t266 299t147.5 351q0 137 -80.5 211t-163.5 74q-142 0 -202 -81t-60 -169q0 -129 80 -213q-24 -24 -102 -105q-65 43 -107.5 138.5
t-42.5 178.5z" />
    <glyph glyph-name="three" unicode="3" horiz-adv-x="1054" 
d="M246 246q79 -96 197 -96t201 82t83 196.5t-83 194t-195 79.5q-75 1 -134 -34q72 125 142.5 247.5t142.5 247.5h-389v168h674q-74 -123 -146.5 -243.5t-146.5 -243.5q135 -50 220 -159.5t85 -256.5q0 -183 -132.5 -313.5t-321.5 -130.5q-188 0 -322 145z" />
    <glyph glyph-name="four" unicode="4" horiz-adv-x="1083" 
d="M825 541h199v-166h-199v-375h-172v375h-577q188 244 374.5 486.5t374.5 486.5v-807zM653 541v305q-59 -78 -116.5 -153t-116.5 -152h233z" />
    <glyph glyph-name="five" unicode="5" horiz-adv-x="1112" 
d="M293 1331h588v-166h-416v-301q25 4 85 4t141 -33.5t142.5 -94t97.5 -140.5t36 -217.5t-132.5 -268t-316.5 -130.5t-307 125q34 32 125 114q73 -73 184 -73t194 82t83 196.5t-83 194t-196 79.5q-161 0 -225 -104v733z" />
    <glyph glyph-name="six" unicode="6" horiz-adv-x="1064" 
d="M543 868q186 0 317 -129t131 -312t-132 -313t-312 -130t-310.5 121.5t-138.5 297.5q0 368 282 593t396 309q27 -33 53.5 -66t53.5 -65q-229 -151 -383 -308zM353.5 231q79.5 -81 190.5 -81q110 0 193.5 82t83.5 196.5t-83 194t-194 79.5t-190.5 -78t-79.5 -195t79.5 -198
z" />
    <glyph glyph-name="seven" unicode="7" 
d="M29 1163v168h845l-598 -1331h-194q133 293 263 581.5t263 581.5h-579z" />
    <glyph glyph-name="eight" unicode="8" horiz-adv-x="1044" 
d="M967 442q0 -106 -36 -187t-97.5 -141.5t-142.5 -95t-219.5 -34.5t-268 129.5t-129.5 314.5q0 119 57 216t152 157q-88 88 -88 220t95 229.5t229 97.5t230.5 -96.5t96.5 -228.5t-90 -222q94 -59 152.5 -156t58.5 -203zM329.5 231q79.5 -81 190.5 -81q110 0 193.5 82
t83.5 194t-78.5 192t-190.5 84q-117 0 -197.5 -79t-80.5 -195t79.5 -197zM369 1019.5q0 -65.5 45.5 -108.5t109.5 -43t108 43t44 108.5t-44 114t-108 48.5t-109.5 -48.5t-45.5 -114z" />
    <glyph glyph-name="nine" unicode="9" horiz-adv-x="1075" 
d="M946 834q0 -114 -64.5 -239.5t-192 -264.5t-421.5 -348q-75 92 -106 131q225 149 383 307q-10 -2 -13 -2h-30q-186 0 -317.5 129.5t-131.5 311.5t133 313t315.5 131t313.5 -130.5t131 -338.5zM690.5 1055.5q-79.5 81.5 -190.5 81.5t-194 -83t-83 -197t83 -193.5
t194 -79.5t190.5 78t79.5 195t-79.5 198.5z" />
    <glyph glyph-name="colon" unicode=":" horiz-adv-x="358" 
d="M68 106.5q0 47.5 32.5 78t72.5 30.5t73 -30.5t33 -78t-33 -77t-73 -29.5t-72.5 29.5t-32.5 77zM68 618.5q0 47.5 32.5 78t72.5 30.5t73 -30.5t33 -78t-33 -77t-73 -29.5t-72.5 29.5t-32.5 77z" />
    <glyph glyph-name="semicolon" unicode=";" horiz-adv-x="411" 
d="M-25 -246l158 422h172l-176 -422h-154zM131 618.5q0 47.5 33 78t73 30.5t72.5 -30.5t32.5 -78t-33 -77t-73 -29.5t-72.5 29.5t-32.5 77z" />
    <glyph glyph-name="less" unicode="&#x3c;" horiz-adv-x="1392" 
d="M639 487l494 -284v-232q-225 129 -447.5 258t-447.5 258q225 129 447 258t448 259v-232q-123 -72 -247 -142.5t-247 -142.5z" />
    <glyph glyph-name="equal" unicode="=" horiz-adv-x="1449" 
d="M1241 793v-166h-1036v166h1036zM1241 395v-166h-1036v166h1036z" />
    <glyph glyph-name="greater" unicode="&#x3e;" horiz-adv-x="1331" 
d="M731 487l-493 285v232q225 -129 447 -258.5t448 -258.5q-225 -129 -447.5 -258t-447.5 -258v232q123 72 246.5 142.5t246.5 141.5z" />
    <glyph glyph-name="question" unicode="?" horiz-adv-x="925" 
d="M417 0q-40 0 -73 29.5t-33 77t33 78t73 30.5t72.5 -30.5t32.5 -78t-32.5 -77t-72.5 -29.5zM484 1499q178 0 294.5 -116.5t116.5 -282.5q0 -115 -54.5 -200t-146.5 -155q-29 -20 -108.5 -72.5t-79.5 -176.5v-160h-172v199q0 110 55 160t98 78t104 74q130 98 130 253
q0 100 -62.5 166.5t-170.5 66.5t-166 -51.5t-89 -151.5l-149 56q63 203 184.5 258t215.5 55z" />
    <glyph glyph-name="at" unicode="@" horiz-adv-x="2027" 
d="M1001 -475q-180 0 -337.5 67.5t-275.5 184.5t-186.5 274.5t-68.5 335.5t68.5 336t186.5 274.5t275.5 184t336.5 67.5t337 -67.5t275 -184t184.5 -274.5t67.5 -338q-14 -192 -135 -288.5t-259 -96.5h-217v82q-2 -6 -20.5 -22.5t-80.5 -47t-153 -30.5q-180 0 -298.5 118.5
t-118.5 281.5t118.5 281.5t292.5 118.5q96 0 168.5 -41t91.5 -69l9 96h141v-602h67q208 0 222 219q0 145 -54.5 272t-201.5 276.5t-436 149.5t-437.5 -149.5t-203 -276.5t-54.5 -272t54.5 -271t204 -274.5t437.5 -148.5q233 0 429 135l102 -121q-149 -132 -306 -156
t-225 -24zM754 386q0 -101 66.5 -170t173 -69t173 69t66.5 170t-66.5 168t-173 67t-173 -67t-66.5 -168z" />
    <glyph glyph-name="A" unicode="A" horiz-adv-x="1515" 
d="M535 567l-240 -567h-170q160 377 317.5 749.5t317.5 749.5q160 -377 317.5 -749.5t317.5 -749.5h-170l-240 567h-450zM915 729l-137 326l-18 67q-29 -102 -72 -198.5t-84 -194.5h311z" />
    <glyph glyph-name="B" unicode="B" horiz-adv-x="1095" 
d="M119 0v1434h375q323 0 385.5 -133t62.5 -243t-60.5 -206t-183.5 -131q197 -42 246 -160.5t49 -200.5t-39 -151.5t-136.5 -139t-287.5 -69.5h-411zM289 641v-479h227q208 0 257.5 87t49.5 148q0 119 -97 181.5t-239 62.5h-198zM772 1049q0 223 -266 223h-217v-469h221
q121 0 191.5 67.5t70.5 178.5z" />
    <glyph glyph-name="C" unicode="C" horiz-adv-x="1372" 
d="M127 714.5q0 151.5 57.5 286t156.5 233.5t232 157.5t261 58.5q224 0 399 -102l-94 -138q-133 78 -265 78q-133 0 -234 -45t-178 -124t-121 -183.5t-44 -221t44 -221t167 -226.5t350 -122q152 0 281 76l92 -135q-178 -102 -351 -102q-174 0 -307 57t-232 156.5
t-156.5 232.5t-57.5 284.5z" />
    <glyph glyph-name="D" unicode="D" horiz-adv-x="1335" 
d="M293 1272v-1108h143q247 0 409.5 153t162.5 401t-162.5 401t-409.5 153h-143zM123 1434h334q303 0 512 -199.5t209 -519.5q0 -121 -42 -248t-136.5 -230.5t-245 -170t-367.5 -66.5h-264v1434z" />
    <glyph glyph-name="E" unicode="E" horiz-adv-x="1230" 
d="M141 0v1434h883v-162h-713v-469h633v-162h-633v-479h742v-162h-912z" />
    <glyph glyph-name="F" unicode="F" horiz-adv-x="1202" 
d="M141 0v1434h883v-162h-713v-469h633v-162h-633v-641h-170z" />
    <glyph glyph-name="G" unicode="G" horiz-adv-x="1417" 
d="M874 1288q-133 0 -234 -45t-178 -124t-121 -183.5t-44 -221t44 -221t167 -226.5t350 -122q106 0 203 37v209q0 35 -7 48.5t-40 13.5h-164v161h283q59 0 78.5 -29.5t19.5 -92.5v-406q-178 -102 -351 -102q-174 0 -307 57t-232 156.5t-156.5 232.5t-57.5 284.5t57.5 286
t156.5 233.5t232 157.5t261 58.5q224 0 399 -102l-94 -138q-132 78 -265 78z" />
    <glyph glyph-name="H" unicode="H" horiz-adv-x="1433" 
d="M160 0v1434h170v-631h774v631h170v-1434h-170v641h-774v-641h-170z" />
    <glyph glyph-name="I" unicode="I" horiz-adv-x="569" 
d="M203 1434h170v-1434h-170v1434z" />
    <glyph glyph-name="J" unicode="J" horiz-adv-x="700" 
d="M358 190v1244h170v-1250q0 -221 -137.5 -348t-355.5 -131v162q141 8 232 90t91 233z" />
    <glyph glyph-name="K" unicode="K" horiz-adv-x="1228" 
d="M274 0h-170v1434h170v-562q-2 -16 -3 -32.5t-3 -32.5q10 12 19.5 23.5t19.5 23.5q154 145 304.5 289.5t303.5 290.5h209l-610 -582q170 -215 338 -426t338 -426h-203l-586 743l-127 -120v-623z" />
    <glyph glyph-name="L" unicode="L" horiz-adv-x="1214" 
d="M141 0v1434h170v-1272h742v-162h-912z" />
    <glyph glyph-name="M" unicode="M" horiz-adv-x="1918" 
d="M375 0h-170v1499q188 -244 374.5 -486.5t374.5 -486.5q188 244 375 486.5t375 486.5v-1499h-170v963q2 16 3 32.5t3 32.5q-135 -201 -286.5 -390t-299.5 -382q-137 180 -274 358.5t-274 358.5l-37 55l6 -65v-963z" />
    <glyph glyph-name="N" unicode="N" horiz-adv-x="1665" 
d="M1286 1434h170v-1500q-264 281 -524 557.5t-524 557.5q-10 14 -19.5 26t-19.5 27l6 -66v-1036h-170v1499q264 -287 524 -568.5t524 -568.5q10 -14 19.5 -26t19.5 -27l-6 66v1059z" />
    <glyph glyph-name="O" unicode="O" horiz-adv-x="1720" 
d="M297 715q0 -119 44 -222.5t121 -180t179 -122t219 -45.5t219.5 45.5t179 122t120.5 180t44 222.5t-44 222t-120.5 181t-179 123t-219.5 45t-219 -45t-179 -123t-121 -181t-44 -222zM127 714q0 151 57.5 285t156.5 234t233 158.5t284 58.5t284 -58.5t234.5 -158.5
t158.5 -234.5t58 -284.5t-58 -283.5t-158.5 -233t-234.5 -156.5t-285 -57t-284 57t-232 156.5t-156.5 232.5t-57.5 284z" />
    <glyph glyph-name="P" unicode="P" horiz-adv-x="1001" 
d="M119 0v1434h338q172 0 328.5 -100.5t156.5 -287.5q0 -188 -110.5 -297.5t-319.5 -109.5h-223v-639h-170zM289 803h178q161 0 233 73t72 167t-87 162.5t-216 68.5h-180v-471z" />
    <glyph glyph-name="Q" unicode="Q" horiz-adv-x="1724" 
d="M127 714.5q0 151.5 57.5 286t156.5 233.5t232.5 157.5t285 58.5t285.5 -58.5t233.5 -157.5t157.5 -233.5t58 -292.5t-69.5 -302t-186.5 -244h301v-162h-628q-78 -16 -152 -16q-152 0 -285 57t-232 156.5t-156.5 232.5t-57.5 284.5zM297 714.5q0 -116.5 44 -221t121 -181
t178 -122t218 -45.5t219.5 45.5t179 122t121.5 181t45 221t-45 221t-121.5 183.5t-179 124t-219.5 45t-218 -45t-178 -124t-121 -183.5t-44 -221z" />
    <glyph glyph-name="R" unicode="R" horiz-adv-x="1062" 
d="M119 0v1434h338q172 0 328.5 -100.5t156.5 -289.5q0 -154 -77 -257t-224 -136l307 -651h-184l-301 639h-174v-639h-170zM289 803h178q161 0 233 73t72 167t-87 162.5t-216 68.5h-180v-471z" />
    <glyph glyph-name="S" unicode="S" horiz-adv-x="1153" 
d="M549 145q112 0 192 63.5t80 176.5q0 137 -98 194.5t-161.5 78t-105.5 36.5q-125 48 -213 128t-92 235t95 270t307 115q82 0 170 -29t197 -121q-25 -31 -48.5 -61.5t-48.5 -61.5q-70 70 -145.5 90.5t-122.5 20.5q-119 0 -176 -67.5t-57 -159.5q0 -126 91 -163.5t147 -57.5
q179 -63 305 -161.5t126 -283.5t-123 -294t-286 -109t-296.5 73t-191.5 160l107 107q167 -179 348 -179z" />
    <glyph glyph-name="T" unicode="T" horiz-adv-x="1132" 
d="M1133 1434v-162h-480v-1272h-170v1272h-483v162h1133z" />
    <glyph glyph-name="U" unicode="U" horiz-adv-x="1335" 
d="M156 463v971h170v-965q0 -154 95.5 -239t249.5 -85t251.5 86t97.5 238v965h170v-971q0 -227 -144.5 -353t-373 -126t-372.5 124.5t-144 354.5z" />
    <glyph glyph-name="V" unicode="V" horiz-adv-x="1478" 
d="M1210 1434h170q-160 -377 -317.5 -750t-317.5 -750q-220 518 -634 1500h170q113 -266 223 -527.5t223 -527.5l18 -68l19 68q113 266 223 527.5t223 527.5z" />
    <glyph glyph-name="W" unicode="W" horiz-adv-x="2269" 
d="M1974 1434h170q-160 -377 -317.5 -750t-317.5 -750l-362 854q-4 18 -10.5 36t-10.5 36q-52 -205 -138.5 -394.5t-140.5 -305t-102 -226.5q-220 518 -634 1500h170q113 -266 223 -527.5t223 -527.5l18 -68q51 186 156 411.5t141 313.5q-41 100 -84 198.5t-84 199.5h170
q113 -266 223.5 -527.5t223.5 -527.5l18 -68l19 68q113 266 223 527.5t223 527.5z" />
    <glyph glyph-name="X" unicode="X" horiz-adv-x="1433" 
d="M190 0l478 731q-115 176 -228.5 351t-228.5 352h209q84 -129 167 -257t167 -257q6 -14 13 -27.5t13 -28.5q6 14 13.5 27.5t13.5 28.5q84 129 167 257t167 257h209l-465 -715q117 -180 234.5 -359.5t234.5 -359.5h-211l-344 528q-8 14 -14.5 28.5t-14.5 29.5
q-6 -14 -13 -28.5t-14 -29.5q-86 -133 -171 -264t-171 -264h-211z" />
    <glyph glyph-name="Y" unicode="Y" horiz-adv-x="1306" 
d="M756 0h-209v553q-131 221 -261 440t-261 441h208q98 -166 196.5 -331t197.5 -331q6 -16 11 -31.5t11 -31.5h2q6 16 12.5 31.5t12.5 31.5q98 166 195.5 331t195.5 331h209l-520 -883v-551z" />
    <glyph glyph-name="Z" unicode="Z" horiz-adv-x="1433" 
d="M430 1434h821v-162q-221 -279 -438 -554.5t-438 -553.5h936v-164h-1145v164q221 279 438 554t438 554h-692q-63 0 -107 37t-44 96v100h170v-24q0 -33 13 -40t48 -7z" />
    <glyph glyph-name="bracketleft" unicode="[" horiz-adv-x="692" 
d="M170 -305v1833h393v-166h-223v-1501h223v-166h-393z" />
    <glyph glyph-name="backslash" unicode="\" horiz-adv-x="788" 
d="M193 1507q143 -389 284 -773t285 -773h-193q-143 389 -284.5 773t-284.5 773h193z" />
    <glyph glyph-name="bracketright" unicode="]" horiz-adv-x="700" 
d="M514 1528v-1833h-393v166h223v1501h-223v166h393z" />
    <glyph glyph-name="asciicircum" unicode="^" horiz-adv-x="962" 
d="M475 1128l-125 -147h-121q61 92 123 185.5t123 185.5q61 -92 122.5 -185.5t123.5 -185.5h-121q-57 68 -125 147z" />
    <glyph glyph-name="underscore" unicode="_" horiz-adv-x="1228" 
d="M1024 0h-819v166h819v-166z" />
    <glyph glyph-name="grave" unicode="`" horiz-adv-x="409" 
d="M68 1253q47 -68 92 -136t92 -136h-121q-59 68 -117.5 136.5t-117.5 135.5h172z" />
    <glyph glyph-name="a" unicode="a" horiz-adv-x="1044" 
d="M922 768v-768h-150v84q0 -6 -18.5 -22.5t-77 -48t-154.5 -31.5q-186 0 -304 119.5t-118 281.5t119 282.5t293 120.5q93 0 156 -35.5t83.5 -54t20.5 -24.5l8 96h142zM272 386q0 -101 67 -170t173 -69t173 69t67 170t-67 168t-173 67t-173 -67t-67 -168z" />
    <glyph glyph-name="b" unicode="b" horiz-adv-x="1091" 
d="M870.5 100.5q-118.5 -118.5 -292.5 -118.5q-105 0 -164.5 31.5t-78 48t-18.5 22.5v-84h-149v1536h170v-795q-4 -15 -10 -31t-10 -32q9 20 86 64t168 44q92 0 167.5 -31.5t162.5 -118.5t87 -252t-118.5 -283.5zM817 386q0 101 -66.5 168t-173 67t-173 -67t-66.5 -168
t66.5 -170t173 -69t173 69t66.5 170z" />
    <glyph glyph-name="c" unicode="c" horiz-adv-x="808" 
d="M739 70q-114 -88 -271 -88t-275.5 118.5t-118.5 285.5t119 283.5t278 116.5t272 -88l-106 -127q-66 49 -163 49t-163.5 -66.5t-66.5 -167.5t67 -169.5t165 -68.5t161 51z" />
    <glyph glyph-name="d" unicode="d" horiz-adv-x="1081" 
d="M752 1536h170v-1536h-150v84q0 -6 -18.5 -22.5t-77 -48t-154.5 -31.5t-172 31.5t-131 87t-87 129t-32 195.5t118 241.5t294 119.5q97 0 175 -44t84 -64l-19 63v795zM272 386q0 -101 67 -170t173 -69t173 69t67 170t-67 168t-173 67t-173 -67t-67 -168z" />
    <glyph glyph-name="e" unicode="e" horiz-adv-x="923" 
d="M483 147q94 0 156 66l104 -123q-108 -108 -270 -108t-280.5 118.5t-118.5 285.5t119 283.5t290 116.5q194 0 268.5 -133t92.5 -207q-139 -51 -277.5 -102t-277.5 -102q68 -95 194 -95zM627 543q-65 78 -145 78q-81 0 -139.5 -41.5t-76.5 -89.5t-22 -89q96 35 191 71
t192 71z" />
    <glyph glyph-name="f" unicode="f" horiz-adv-x="671" 
d="M45 621v165h131v273q0 221 136 346t358 133v-162q-141 -8 -232.5 -90t-91.5 -233v-267h240v-165h-240v-621h-170v621h-131z" />
    <glyph glyph-name="g" unicode="g" horiz-adv-x="1060" 
d="M922 768v-891q0 -162 -119 -275.5t-278 -113.5t-337 123l113 139q114 -86 212 -86q99 0 169 66.5t70 173.5v137q4 10 9 19.5t9 19.5q-39 -52 -121.5 -74t-152.5 -22t-146 31.5t-163 117.5t-87 249t119 283.5t293 120.5q93 0 156 -35.5t83.5 -54t20.5 -24.5l8 96h142z
M272 386q0 -101 67 -170t173 -69t173 69t67 170t-67 168t-173 67t-173 -67t-67 -168z" />
    <glyph glyph-name="h" unicode="h" horiz-adv-x="1075" 
d="M930 0h-170v479q-4 55 -40 95t-102 42q-119 4 -199.5 -68t-80.5 -175v-373h-170v1536h170v-872l-6 -93q91 203 334 215q121 0 190.5 -63.5t73.5 -165.5v-557z" />
    <glyph glyph-name="i" unicode="i" horiz-adv-x="409" 
d="M289 0h-170v768h170v-768zM100 1065q0 47 33 78t73 31t72.5 -31t32.5 -78t-32.5 -77t-72.5 -30t-73 30t-33 77z" />
    <glyph glyph-name="j" unicode="j" horiz-adv-x="460" 
d="M154 6v764l170 -2v-768q0 -247 -164 -371l-117 127q111 86 111 250zM139 1065q0 47 33 78t73 31t72.5 -31t32.5 -78t-32.5 -77t-72.5 -30t-73 30t-33 77z" />
    <glyph glyph-name="k" unicode="k" horiz-adv-x="919" 
d="M289 0h-170v1536h170v-1104l381 354l100 -100l-262 -248q80 -111 160 -219t159 -219h-196q-59 82 -120.5 164t-121.5 164q-22 -20 -100 -95v-233z" />
    <glyph glyph-name="l" unicode="l" horiz-adv-x="397" 
d="M289 0h-170v1536h170v-1536z" />
    <glyph glyph-name="m" unicode="m" horiz-adv-x="1630" 
d="M168 768h149v-18q4 -49 7.5 -89t7.5 -90q43 98 130 154.5t202 58.5t183 -54t81 -148q45 94 131 147t198 57q121 0 191 -63.5t74 -165.5v-557h-170v479q-4 55 -40 95t-102 42q-119 4 -199.5 -68t-80.5 -175v-373h-170v479q-4 55 -40 95t-102 42q-119 4 -199.5 -68
t-80.5 -175v-373h-170v768z" />
    <glyph glyph-name="n" unicode="n" horiz-adv-x="1013" 
d="M168 768h149v-18q4 -49 7.5 -89t7.5 -90q41 98 132 156.5t207 58.5t185.5 -63.5t73.5 -165.5v-557h-170v479q-4 55 -40 95t-102 42q-119 4 -199.5 -68t-80.5 -175v-373h-170v768z" />
    <glyph glyph-name="o" unicode="o" horiz-adv-x="972" 
d="M244 383q0 -49 18.5 -92t50 -75t74.5 -50.5t92 -18.5t92 18.5t76 50.5t51.5 75t18.5 92t-18.5 92t-51.5 76t-76 51.5t-92 18.5t-92 -18.5t-74.5 -51.5t-50 -76t-18.5 -92zM776 668.5q119 -117.5 119 -282.5t-118 -284.5t-292 -119.5t-292.5 118.5t-118.5 285.5t119 283.5
t291.5 116.5t291.5 -117.5z" />
    <glyph glyph-name="p" unicode="p" horiz-adv-x="1075" 
d="M307 -512h-170v1280h142q0 -25 3 -48.5t5 -47.5q0 6 20.5 24.5t83.5 54t152 35.5q90 0 165.5 -31.5t131 -87t87 -128t31.5 -196.5t-118.5 -242.5t-279.5 -118.5t-255 79q-12 10 -16 17l18 -39v-551zM786 386q0 101 -66.5 168t-173 67t-173 -67t-66.5 -168t66.5 -170
t173 -69t173 69t66.5 170z" />
    <glyph glyph-name="q" unicode="q" horiz-adv-x="1048" 
d="M922 768v-1280h-170v551q6 15 18 39q-32 -48 -114 -72t-156 -24t-150 31.5t-131 87t-87 129t-32 195.5t118 241.5t294 119.5q93 0 156 -35.5t83.5 -54t20.5 -24.5l8 96h142zM272 386q0 -101 67 -170t173 -69t173 69t67 170t-67 168t-173 67t-173 -67t-67 -168z" />
    <glyph glyph-name="r" unicode="r" horiz-adv-x="677" 
d="M338 373v-373h-170v768h149v-18q4 -49 7.5 -89t7.5 -90q47 96 136.5 155.5t158.5 59.5l-13 -168q-125 0 -200.5 -69.5t-75.5 -175.5z" />
    <glyph glyph-name="s" unicode="s" horiz-adv-x="724" 
d="M219 205q85 -55 122 -55q58 0 89.5 13.5t33.5 54.5q3 42 -19.5 61.5t-58.5 33t-79 26.5t-105.5 51.5t-62.5 159.5t77.5 178.5t167.5 57.5t144.5 -30.5t77.5 -55.5q-23 -33 -47 -63.5t-47 -63.5q-48 48 -106 48q-104 0 -95 -72q4 -25 31 -40t99 -44.5t134 -78t62 -161.5
q0 -79 -40 -133.5t-91 -81t-130 -26.5t-148.5 25.5t-110.5 70.5z" />
    <glyph glyph-name="t" unicode="t" horiz-adv-x="614" 
d="M221 1268h170v-482h201v-165h-201v-621h-170v621h-172v165h172v482z" />
    <glyph glyph-name="u" unicode="u" horiz-adv-x="1083" 
d="M930 -18h-170v122l6 93q-41 -98 -132 -156.5t-207 -58.5t-185.5 63.5t-73.5 165.5v557h170v-479q4 -55 40 -95t102 -42q119 -4 199.5 68t80.5 175v373h170v-786z" />
    <glyph glyph-name="v" unicode="v" horiz-adv-x="1024" 
d="M553 -47q-111 205 -221.5 407.5t-220.5 407.5h170q33 -61 71.5 -127t97 -166.5t103.5 -228.5q32 104 128 270t144 252h170q-111 -205 -221 -407.5t-221 -407.5z" />
    <glyph glyph-name="w" unicode="w" horiz-adv-x="1581" 
d="M715 672q-12 25 -23.5 48t-23.5 48h170q59 -129 127.5 -259t113.5 -263q45 133 114 263t128 259h170q-104 -205 -205.5 -407.5t-206.5 -407.5q-70 139 -139.5 275.5t-138.5 275.5q-70 -139 -139.5 -275.5t-139.5 -275.5q-104 205 -205.5 407.5t-205.5 407.5h170
q59 -129 127.5 -259t113.5 -263q37 111 91.5 216.5t101.5 209.5z" />
    <glyph glyph-name="x" unicode="x" horiz-adv-x="972" 
d="M43 0l303 414q-66 90 -130 177t-130 177h209q51 -68 101 -136.5t102 -135.5l198 272h209q-141 -193 -301 -414q66 -90 132.5 -177t131.5 -177h-217q-51 68 -100 136.5t-100 135.5l-199 -272h-209z" />
    <glyph glyph-name="y" unicode="y" horiz-adv-x="1024" 
d="M997 768l-645 -1280h-170q1 2 258 512l-387 768h170q76 -150 163 -304.5t140 -311.5q49 140 115 264.5t108 201t78 150.5h170z" />
    <glyph glyph-name="z" unicode="z" horiz-adv-x="923" 
d="M342 768h444v-166q-66 -57 -196.5 -186.5t-263.5 -249.5h508v-166h-748v166q149 135 272 259t189 181h-285q-63 0 -107 37t-44 96v101h170v-25q0 -33 13 -40t48 -7z" />
    <glyph glyph-name="braceleft" unicode="{" horiz-adv-x="655" 
d="M397 887q0 -195 -133 -277q86 -52 109.5 -132.5t23.5 -141.5v-264q0 -129 17.5 -162t38 -41t51.5 -8h90v-166h-129q-47 0 -91 2t-97.5 36t-53.5 204v311q0 177 -56.5 225.5t-105.5 50.5v166q88 4 125 84.5t37 192.5v319q0 170 52.5 204t96.5 36t93 2h129v-166h-90
q-64 0 -85.5 -43t-21.5 -168v-264z" />
    <glyph glyph-name="bar" unicode="|" horiz-adv-x="555" 
d="M186 -475v1909h172v-1909h-172z" />
    <glyph glyph-name="braceright" unicode="}" horiz-adv-x="655" 
d="M258 336q0 185 133 274q-86 51 -109.5 132t-23.5 145v264q0 128 -17.5 161.5t-38 41.5t-50.5 8h-91v166h129q47 0 91.5 -2t97.5 -36t53 -204v-319q0 -176 56.5 -225.5t105.5 -51.5v-166q-128 -5 -145 -120t-17 -156v-311q0 -169 -52 -203.5t-96 -36.5t-94 -2h-129v166h91
q62 0 84 39.5t22 171.5v264z" />
    <glyph glyph-name="asciitilde" unicode="~" horiz-adv-x="1001" 
d="M899 1098q-4 -79 -62 -128.5t-131 -49.5t-151 65q-50 53 -92.5 53t-79.5 -18.5t-43 -75.5l-92 6q4 78 61.5 129t114.5 51q92 0 168 -67q50 -53 106 -53q96 0 109 94z" />
    <glyph glyph-name="exclamdown" unicode="&#xa1;" horiz-adv-x="409" 
d="M119 -430v1196h170v-1196h-170zM204 1106q40 0 72 -31t33 -78q0 -47 -33 -77q-32 -30 -72 -29q-40 0 -73 30q-33 31 -33 77t33 77t73 31z" />
    <glyph glyph-name="cent" unicode="&#xa2;" horiz-adv-x="788" 
d="M539 -139h-172v139q-130 37 -211.5 143t-81.5 240.5t81.5 242t211.5 144.5v127h172v-115q127 -19 204 -84l-106 -127q-41 29 -98 43v-462q54 12 98 47l102 -129q-86 -72 -200 -84v-125zM244 347.5q0 -107.5 123 -173.5v418q-57 -29 -90 -83t-33 -161.5z" />
    <glyph glyph-name="sterling" unicode="&#xa3;" horiz-adv-x="1175" 
d="M499 1104q-71 -29 -71 -125v-254h240v-166h-240v-225q0 -59 -5 -99t-38 -69h352q129 0 162 17.5t41 38t8 50.5v90l172 3v-191q0 -88 -50.5 -131t-190.5 -43h-820v166h91q65 0 85.5 36.5t20.5 168.5v188h-133v166h133v299q0 274 453 274q137 0 219 -61t123 -143l-129 -76
q-10 14 -45 64.5t-171 50.5t-207 -29z" />
    <glyph glyph-name="currency" unicode="&#xa4;" horiz-adv-x="1024" 
d="M508 414q-88 0 -162 39l-51 -52l-121 121l49 49q-45 78 -45 165t43 163l-47 49l121 121l49 -49q93 43 169.5 43t156.5 -43l49 49l121 -121l-45 -45q45 -78 45 -166t-47 -164l49 -49l-121 -121l-53 52q-72 -41 -160 -41zM396 626q46 -46 113 -46t113 46t46 112
t-47.5 112.5t-112.5 46.5t-111.5 -46.5t-46.5 -112.5t46 -112z" />
    <glyph glyph-name="yen" unicode="&#xa5;" horiz-adv-x="1306" 
d="M989 371v-166h-233v-205h-209v205h-240v166h240v168h-240v166h150q-109 184 -216.5 364t-215.5 365h208q98 -166 196.5 -331t197.5 -331q6 -16 11 -31.5t11 -31.5h2q6 16 12.5 31.5t12.5 31.5q98 166 195.5 331t195.5 331h209q-230 -388 -430 -729h143v-166h-233v-168
h233z" />
    <glyph glyph-name="brokenbar" unicode="&#xa6;" horiz-adv-x="440" 
d="M313 717h-172v717h172v-717zM313 -477h-172v717h172v-717z" />
    <glyph glyph-name="section" unicode="&#xa7;" horiz-adv-x="1024" 
d="M467 -102l-86 143q45 27 75 44q57 33 53.5 75.5t-62.5 137.5q-60 95 -91.5 148.5t-52 87.5t-20.5 44q-57 93 -38 208t103 183q59 47 144 55q-23 35 -41.5 69.5t-48.5 86.5q-64 110 -49.5 177.5t91.5 112.5q37 23 76 45.5t76 45.5q23 -35 43 -72t43 -72
q-20 -10 -39.5 -22.5t-42.5 -25.5q-48 -27 -50 -64.5t44 -116.5h2q47 -78 91 -153t82 -137q67 -111 45.5 -223.5t-107.5 -176.5q-59 -47 -144 -60q23 -35 44 -71.5t51 -88.5q66 -112 50 -179t-92 -113q-37 -23 -74.5 -44.5t-74.5 -43.5zM397 737.5q0 -55.5 38 -93.5t92 -38
t93 38t39 92t-37.5 93t-91.5 39t-93.5 -37.5t-39.5 -93z" />
    <glyph glyph-name="dieresis" unicode="&#xa8;" horiz-adv-x="757" 
d="M100 1065q0 47 33 78t73 31t72.5 -31t32.5 -78t-32.5 -77t-72.5 -30t-73 30t-33 77zM440 1065q0 47 33 78t73 31t72.5 -31t32.5 -78t-32.5 -77t-72.5 -30t-73 30t-33 77z" />
    <glyph glyph-name="copyright" unicode="&#xa9;" horiz-adv-x="1624" 
d="M844 436q-149 0 -245.5 98t-96.5 235t95.5 234t233.5 97q92 0 170 -45l-43 -64q-60 37 -120 37t-105 -20.5t-80 -56.5t-54 -83t-19 -128t74.5 -155.5t160.5 -74.5t143 35l43 -62q-76 -47 -157 -47zM281 764q0 226 155.5 380t382.5 154t383 -154t156 -380t-157.5 -381.5
t-381.5 -155.5t-381 155.5t-157 381.5zM819 303q194 0 325.5 131.5t131.5 328.5t-131.5 328.5t-325.5 131.5t-325.5 -131.5t-131.5 -328.5t131.5 -328.5t325.5 -131.5z" />
    <glyph glyph-name="ordfeminine" unicode="&#xaa;" horiz-adv-x="1198" 
d="M751 1007v-554h-108v60q0 -4 -13 -16t-55 -34t-112 -23q-71 -1 -125 22q-109 46 -157 155q-23 53 -23 111t23 112q48 110 158 156q55 24 105 24q76 0 138 -34q61 -34 61 -49l6 70h102zM455 900q-77 0 -125 -48t-47 -121q0 -73 48 -123q49 -50 125 -49q76 0 124 49
q48 48 48 122t-48 122t-125 48z" />
    <glyph glyph-name="guillemotleft" unicode="&#xab;" horiz-adv-x="1230" 
d="M457 489l133 -137v-194l-350 331q88 84 175 165t175 165v-194zM807 489l133 -137v-194l-350 331q88 84 175 165t175 165v-192z" />
    <glyph glyph-name="logicalnot" unicode="&#xac;" horiz-adv-x="1144" 
d="M770 303v82h-565v123h737v-205h-172z" />
    <glyph glyph-name="registered" unicode="&#xae;" horiz-adv-x="1640" 
d="M737 733v-303h-82v678h162q81 0 131.5 -33t74.5 -68t24 -95t-37 -109t-107 -66q37 -78 74 -153.5t72 -153.5h-86l-144 303h-82zM737 809h84q76 0 111 34t35 79t-42 77.5t-102 32.5h-86v-223zM281 764q0 226 155.5 380t382.5 154t383 -154t156 -380t-157.5 -381.5
t-381.5 -155.5t-381 155.5t-157 381.5zM819 303q194 0 325.5 131.5t131.5 328.5t-131.5 328.5t-325.5 131.5t-325.5 -131.5t-131.5 -328.5t131.5 -328.5t325.5 -131.5z" />
    <glyph glyph-name="macron" unicode="&#xaf;" horiz-adv-x="817" 
d="M174 979v108h471v-108h-471z" />
    <glyph glyph-name="degree" unicode="&#xb0;" horiz-adv-x="577" 
d="M74 1147q0 43 16 80t44 64.5t67 44t82 16.5t79.5 -16.5t64.5 -44t44 -64.5t16 -80t-16 -81t-44 -65.5t-64.5 -43t-79.5 -15.5t-82 15.5t-67 43t-44 65.5t-16 81zM283 1047q41 0 70.5 28.5t29.5 69.5t-29.5 70.5t-70.5 29.5t-70 -29.5t-29 -70.5t29 -69.5t70 -28.5z" />
    <glyph glyph-name="plusminus" unicode="&#xb1;" horiz-adv-x="1073" 
d="M913 205h-737v166h737v-166zM459 432v285h-283v166h283v286h172v-286h282v-166h-282v-285h-172z" />
    <glyph glyph-name="twosuperior" unicode="&#xb2;" horiz-adv-x="815" 
d="M247 734l-51 -52q-50 33 -69 115q-5 23 -5 53q0 73 54 133q61 63 154 62t152 -63q58 -62 59 -130q1 -69 -25 -137t-85 -138q-58 -70 -98 -116h246v-82h-448l122 122q127 127 165 200q79 153 -4 228q-35 31 -90 33t-86 -39q-31 -40 -31 -94q0 -55 40 -95z" />
    <glyph glyph-name="threesuperior" unicode="&#xb3;" horiz-adv-x="858" 
d="M408 580q0 103 -84 138q-26 11 -58 11t-61 -17q35 62 70 122t70 122h-192v82h333l-72 -120t-73 -120q104 -38 140 -136q11 -32 11 -72q0 -84 -65 -150q-65 -65 -157 -65t-161 72q60 56 61 57q40 -49 99 -48q59 2 99 42t40 82z" />
    <glyph glyph-name="acute" unicode="&#xb4;" horiz-adv-x="561" 
d="M561 1253l-235 -272h-121l184 272h172z" />
    <glyph glyph-name="mu" unicode="&#xb5;" horiz-adv-x="1116" 
d="M930 -18h-170v122l6 93q-43 -98 -130 -154.5t-204 -60.5q-51 0 -94 12v-406h-170v1180h170v-479q4 -55 40 -95t102 -42q119 -4 199.5 68t80.5 175v373h170v-786z" />
    <glyph glyph-name="paragraph" unicode="&#xb6;" horiz-adv-x="1120" 
d="M582 0h-170v866q-141 0 -237.5 96.5t-96.5 238t97 238.5t237 97h503v-1536h-170v1370h-163v-1370z" />
    <glyph glyph-name="periodcentered" unicode="&#xb7;" horiz-adv-x="344" 
d="M70 578q0 48 32 78t73 30q40 0 73 -31t33 -77t-33 -77q-33 -30 -73 -30t-73 30q-32 30 -32 77z" />
    <glyph glyph-name="cedilla" unicode="&#xb8;" horiz-adv-x="925" 
d="M311 -309q23 -76 109 -76q45 0 71.5 33t26.5 78t-22.5 68.5t-48 42t-48 39t-22.5 54.5v70h104v-14q0 -65 37 -83t49 -28q78 -60 78 -166q0 -146 -80.5 -183.5t-142.5 -37.5t-120 38t-85 116q23 12 47.5 24t46.5 25z" />
    <glyph glyph-name="onesuperior" unicode="&#xb9;" horiz-adv-x="559" 
d="M71 913v76h143v-612h-79v536h-64z" />
    <glyph glyph-name="ordmasculine" unicode="&#xba;" 
d="M272 729q0 -73 50 -122q50 -48 119 -48q70 0 121 48t51 121q0 72 -50 122t-121 50q-110 0 -157 -105q-13 -31 -13 -66zM447 1020q123 0 209 -84t86 -205q0 -120 -86 -206t-210 -86t-211 86q-86 86 -86 206t87 205q87 84 211 84z" />
    <glyph glyph-name="guillemotright" unicode="&#xbb;" horiz-adv-x="1230" 
d="M590 819l350 -330l-350 -331v194l133 137q-31 31 -133 136v194zM240 819l350 -330l-350 -331v194l133 137l-133 138v192z" />
    <glyph glyph-name="onequarter" unicode="&#xbc;" horiz-adv-x="1982" 
d="M1334 403h148v-124h-148v-279h-128v279h-393q-58 -159 -117 -318h-172q329 894 570 1546h172q-144 -389 -248 -672t-171 -466q105 137 226 295t261 340v-601zM1206 403v227q-127 -167 -173 -227h173zM191 1167v118h221v-945h-122v827h-99z" />
    <glyph glyph-name="onehalf" unicode="&#xbd;" horiz-adv-x="2189" 
d="M191 1167v118h221v-945h-122v827h-99zM524 -39q233 633 570 1546h172q-102 -278 -204 -553q21 2 66 2t100 -24t94 -66q83 -87 83 -212q0 -184 -187 -406q-54 -65 -112 -130h353v-118h-643q248 248 318 333q149 179 149 304q0 98 -56 150t-116 52t-95 -19q-3 -1 -5 -3
q-15 -41 -35 -95t-44 -121q11 -50 50 -91l-37 -37q-17 -18 -36 -37q-15 10 -29 24q-92 -249 -184 -499h-172z" />
    <glyph glyph-name="threequarters" unicode="&#xbe;" horiz-adv-x="2613" 
d="M337 516q60 -75 152 -75t155 63t65 153q1 89 -64 150q-62 62 -135 62t-119 -27q55 97 110 192t110 191h-300v130h520q-57 -95 -113 -188t-113 -189q106 -39 171 -123q65 -85 65 -213t-102 -228q-102 -101 -247 -101t-251 112q21 19 96 91zM1637 403h148v-124h-148v-279
h-128v279h-306q-58 -159 -118 -318h-172q329 894 570 1546h172q-143 -389 -228 -619t-112 -304q77 101 322 420v-601zM1509 403v227q-127 -167 -173 -227h173z" />
    <glyph glyph-name="questiondown" unicode="&#xbf;" horiz-adv-x="925" 
d="M542 1104q40 0 72 -30t33 -77q0 -47 -33 -77q-32 -30 -72 -31q-40 0 -73 31q-33 32 -33 78t33 76t73 30zM179 -277q-118 118 -115 281q0 115 54 200t146 154q29 20 62 42q77 51 102 102q24 51 25 106v160h172v-199q0 -110 -76 -179q-35 -32 -78 -60q-152 -97 -199 -185
q-34 -65 -34 -153t62 -155t171 -67t166 52q57 51 88 151l150 -55q-38 -122 -100 -185q-126 -128 -302 -128t-294 118z" />
    <glyph glyph-name="Agrave" unicode="&#xc0;" horiz-adv-x="1515" 
d="M535 567l-240 -567h-170q160 377 317 750q158 373 318 749q160 -377 318 -749t317 -750h-170q-75 180 -240 567h-450zM915 729l-137 326l-18 67q-29 -102 -72 -198t-84 -195h311zM612 1808l92 -136t93 -136h-121q-60 68 -118 136t-118 136h172z" />
    <glyph glyph-name="Aacute" unicode="&#xc1;" horiz-adv-x="1515" 
d="M535 567l-240 -567h-170q160 377 317 750q158 373 318 749q160 -377 318 -749t317 -750h-170q-75 180 -240 567h-450zM915 729l-137 326l-18 67q-29 -102 -72 -198t-84 -195h311zM1057 1808l-236 -272h-121l185 272h172z" />
    <glyph glyph-name="Acircumflex" unicode="&#xc2;" horiz-adv-x="1515" 
d="M535 567l-240 -567h-170q160 377 317 750q158 373 318 749q160 -377 318 -749t317 -750h-170q-75 180 -240 567h-450zM915 729l-137 326l-18 67q-29 -102 -72 -198t-84 -195h311zM760 1683l-125 -147h-121q61 92 123 186t123 185q60 -91 122 -185t124 -186h-121
q-31 37 -63 74t-62 73z" />
    <glyph glyph-name="Atilde" unicode="&#xc3;" horiz-adv-x="1515" 
d="M535 567l-240 -567h-170q160 377 317 750q158 373 318 749q160 -377 318 -749t317 -750h-170q-75 180 -240 567h-450zM915 729l-137 326l-18 67q-29 -102 -72 -198t-84 -195h311zM611 1753q94 0 167 -67q51 -54 110 -54t90 47q11 18 15 47l92 -6q-4 -79 -62 -128
q-58 -50 -130 -50t-152 66q-51 53 -107 53q-28 -1 -65 -19t-43 -75l-92 6q4 79 62 130q58 50 115 50z" />
    <glyph glyph-name="Adieresis" unicode="&#xc4;" horiz-adv-x="1515" 
d="M535 567l-240 -567h-170q160 377 317 750q158 373 318 749q160 -377 318 -749t317 -750h-170q-75 180 -240 567h-450zM915 729l-137 326l-18 67q-29 -102 -72 -198t-84 -195h311zM485 1659q0 47 33 78t73 31t73 -32q32 -30 32 -77t-32 -77t-73 -30q-40 0 -73 30t-33 77z
M825 1659q0 47 33 78t73 31t73 -32q32 -30 32 -77t-32 -77t-73 -30q-40 0 -73 30t-33 77z" />
    <glyph glyph-name="Aring" unicode="&#xc5;" horiz-adv-x="1515" 
d="M535 567l-240 -567h-170q160 377 317.5 749.5t317.5 749.5q160 -377 317.5 -749.5t317.5 -749.5h-170l-240 567h-450zM915 729l-137 326l-18 67q-29 -102 -72 -198.5t-84 -194.5h311zM582 1716q0 37 14 69t38.5 56.5t56.5 38.5t69 14t68.5 -14t56 -38.5t39 -56.5
t14.5 -69t-14.5 -68.5t-39 -56t-56 -39t-68.5 -14.5t-69 14.5t-56.5 39t-38.5 56t-14 68.5zM694 1714.5q0 -28.5 18.5 -47t47 -18.5t48 18.5t19.5 47t-19.5 48t-48 19.5t-47 -19.5t-18.5 -48z" />
    <glyph glyph-name="AE" unicode="&#xc6;" horiz-adv-x="1638" 
d="M1446 1434v-162h-518v-469h438v-162h-438v-479h547v-162h-717v541h-236l-229 -541h-170l606 1434h717zM758 702v420q-29 -106 -77 -210.5t-91 -209.5h168z" />
    <glyph glyph-name="Ccedilla" unicode="&#xc7;" horiz-adv-x="1372" 
d="M717 -309q23 -76 108 -76q45 0 72 33t27 78t-22.5 68.5t-48.5 42t-48.5 39t-22.5 54.5v58q-275 28 -465 233.5t-190 493.5q0 152 57.5 286t156.5 233t232 157.5t261 58.5q224 0 399 -102l-94 -138q-133 78 -265 78q-133 0 -234 -45t-178 -124t-121 -183.5t-44 -221
t44 -221t167 -226.5t350 -122q152 0 281 76l92 -135q-163 -94 -344 -102q0 -65 82 -105t82 -178t-80.5 -175.5t-142.5 -37.5t-120.5 38t-84.5 116q23 12 47 24t47 25z" />
    <glyph glyph-name="Egrave" unicode="&#xc8;" horiz-adv-x="1230" 
d="M141 0v1434h883v-162h-713v-469h633v-162h-633v-479h742v-162h-912zM469 1808q47 -68 92 -136t92 -136h-121q-59 68 -117 136t-118 136h172z" />
    <glyph glyph-name="Eacute" unicode="&#xc9;" horiz-adv-x="1230" 
d="M141 0v1434h883v-162h-713v-469h633v-162h-633v-479h742v-162h-912zM895 1808l-236 -272h-120l184 272h172z" />
    <glyph glyph-name="Ecircumflex" unicode="&#xca;" horiz-adv-x="1230" 
d="M141 0v1434h883v-162h-713v-469h633v-162h-633v-479h742v-162h-912zM614 1683l-125 -147h-120q61 92 123 186t122 185q60 -91 122 -185t124 -186h-121q-57 68 -125 147z" />
    <glyph glyph-name="Edieresis" unicode="&#xcb;" horiz-adv-x="1230" 
d="M141 0v1434h883v-162h-713v-469h633v-162h-633v-479h742v-162h-912zM319 1659q0 47 33 78t73 31t73 -32q32 -30 32 -77t-32 -77t-73 -30q-40 0 -73 30t-33 77zM659 1659q0 47 33 78t73 31t73 -32q32 -30 32 -77t-32 -77t-73 -30q-40 0 -73 30t-33 77z" />
    <glyph glyph-name="Igrave" unicode="&#xcc;" horiz-adv-x="483" 
d="M203 1434h170v-1434h-170v1434zM141 1808q47 -68 92 -136t93 -136h-121q-59 68 -117 136t-119 136h172z" />
    <glyph glyph-name="Iacute" unicode="&#xcd;" horiz-adv-x="483" 
d="M203 1434h170v-1434h-170v1434zM608 1808l-235 -272h-121l184 272h172z" />
    <glyph glyph-name="Icircumflex" unicode="&#xce;" horiz-adv-x="585" 
d="M203 1434h170v-1434h-170v1434zM289 1683l-125 -147h-121q61 92 123 186t123 185q61 -91 123 -185t123 -186h-121q-31 37 -63 74t-62 73z" />
    <glyph glyph-name="Idieresis" unicode="&#xcf;" horiz-adv-x="483" 
d="M203 1434h170v-1434h-170v1434zM8 1659q0 47 33 78t73 31t72 -32q32 -30 33 -77q0 -47 -33 -77q-32 -30 -72 -30t-73 30t-33 77zM348 1659q0 47 33 78t73 31t72 -32q32 -30 33 -77q0 -47 -33 -77q-32 -30 -72 -30t-73 30t-33 77z" />
    <glyph glyph-name="Eth" unicode="&#xd0;" horiz-adv-x="1323" 
d="M123 799v635h311q162 0 308.5 -50.5t255 -143.5t173 -226.5t64.5 -275.5t-47 -269t-151.5 -231.5t-272.5 -171t-410 -66.5h-231v633h-78v166h78zM293 633v-471h153q270 0 444.5 152.5t174.5 403.5t-174.5 403.5t-444.5 152.5h-153v-475h371v-166h-371z" />
    <glyph glyph-name="Ntilde" unicode="&#xd1;" horiz-adv-x="1665" 
d="M1286 1434h170v-1500q-264 282 -524 558t-524 557q-10 14 -20 26q-9 12 -19 27l6 -66v-1036h-170v1499q264 -287 524 -569t524 -568q9 -14 19 -26t20 -27l-6 66v1059zM967 1608q95 0 108 94l92 -6q-4 -81 -62 -130q-58 -48 -131 -48t-151 65q-50 53 -106 53
q-29 0 -66 -18t-43 -76l-92 6q4 79 61 129t115 51q91 2 168 -67q50 -53 107 -53z" />
    <glyph glyph-name="Ograve" unicode="&#xd2;" horiz-adv-x="1718" 
d="M293 715q0 -236 165 -403q167 -167 398 -167t397 166t166 403t-165 404q-165 168 -398 168q-232 0 -398 -168q-165 -167 -165 -403zM123 714q0 150 57 284q116 273 389 394q133 58 284 58t285 -58q272 -118 393 -394q58 -134 58 -284t-58 -284q-118 -270 -393 -389
q-134 -57 -285 -57t-284 57q-270 116 -389 389q-57 133 -57 284zM705 1808q47 -68 92 -136t92 -136h-121q-60 68 -118 136t-118 136h173z" />
    <glyph glyph-name="Oacute" unicode="&#xd3;" horiz-adv-x="1720" 
d="M293 715q0 -236 165 -403q167 -167 398 -167t397 166t166 403t-165 404q-165 168 -398 168q-232 0 -398 -168q-165 -167 -165 -403zM123 714q0 150 57 284q116 273 389 394q133 58 284 58t285 -58q272 -118 393 -394q58 -134 58 -284t-58 -284q-118 -270 -393 -389
q-134 -57 -285 -57t-284 57q-270 116 -389 389q-57 133 -57 284zM1176 1808l-236 -272h-121l185 272h172z" />
    <glyph glyph-name="Ocircumflex" unicode="&#xd4;" horiz-adv-x="1718" 
d="M293 715q0 -236 165 -403q167 -167 398 -167t397 166t166 403t-165 404q-165 168 -398 168q-232 0 -398 -168q-165 -167 -165 -403zM123 714q0 150 57 284q116 273 389 394q133 58 284 58t285 -58q272 -118 393 -394q58 -134 58 -284t-58 -284q-118 -270 -393 -389
q-134 -57 -285 -57t-284 57q-270 116 -389 389q-57 133 -57 284zM854 1683l-125 -147h-121q61 92 123 186t123 185q60 -91 122 -185t124 -186h-121q-31 37 -63 74t-62 73z" />
    <glyph glyph-name="Otilde" unicode="&#xd5;" horiz-adv-x="1718" 
d="M293 715q0 -236 165 -403q167 -167 398 -167t397 166t166 403t-165 404q-165 168 -398 168q-232 0 -398 -168q-165 -167 -165 -403zM123 714q0 150 57 284q116 273 389 394q133 58 284 58t285 -58q272 -118 393 -394q58 -134 58 -284t-58 -284q-118 -270 -393 -389
q-134 -57 -285 -57t-284 57q-270 116 -389 389q-57 133 -57 284zM737 1708q-29 0 -65 -18t-43 -76l-92 6q4 80 61 130q58 50 115 50q92 0 168 -67q49 -52 106 -54q93 0 109 95l92 -7q-4 -78 -61 -127t-115 -50q-58 0 -96 18t-72 47q-50 53 -107 53z" />
    <glyph glyph-name="Odieresis" unicode="&#xd6;" horiz-adv-x="1718" 
d="M293 715q0 -236 165 -403q167 -167 398 -167t397 166t166 403t-165 404q-165 168 -398 168q-232 0 -398 -168q-165 -167 -165 -403zM123 714q0 150 57 284q116 273 389 394q133 58 284 58t285 -58q272 -118 393 -394q58 -134 58 -284t-58 -284q-118 -270 -393 -389
q-134 -57 -285 -57t-284 57q-270 116 -389 389q-57 133 -57 284zM582 1659q0 47 32 78q33 31 73 31t73 -32q33 -30 33 -77t-33 -77t-73 -30t-73 30q-32 30 -32 77zM922 1659q0 47 32 78q33 31 73 31t73 -32q33 -30 33 -77t-33 -77t-73 -30t-73 30q-32 30 -32 77z" />
    <glyph glyph-name="multiply" unicode="&#xd7;" horiz-adv-x="1024" 
d="M666 324l200 -203l-121 -121l-202 201l-199 -199l-119 117l201 200l-203 203l121 121l203 -203l201 201q32 -32 116 -119z" />
    <glyph glyph-name="Oslash" unicode="&#xd8;" horiz-adv-x="1720" 
d="M326 211q-199 213 -199 507q0 150 57.5 283.5t156.5 232.5t232.5 157.5t284.5 58.5q225 0 418 -131l131 154l119 -105l-131 -151q198 -211 198 -505q0 -148 -58 -281.5t-157.5 -233t-233.5 -156.5t-286 -57q-227 0 -412 125l-122 -144l-119 105zM1423 710q0 220 -139 377
q-184 -215 -364.5 -425.5t-364.5 -425.5q140 -91 303 -91q231 0 353 122t167 226.5t45 216.5zM858 1288q-231 0 -396 -169t-165 -393t139 -386q184 215 365.5 426t365.5 426q-145 96 -309 96z" />
    <glyph glyph-name="Ugrave" unicode="&#xd9;" horiz-adv-x="1335" 
d="M156 463v971h170v-965q0 -151 96 -238q96 -86 248 -86q153 0 251 86q99 86 99 238v965h170v-971q0 -227 -146 -353t-372 -126q-111 0 -205 30q-198 64 -272 242q-39 90 -39 207zM553 1808q47 -68 92 -136t92 -136h-121q-59 68 -117 136t-118 136h172z" />
    <glyph glyph-name="Uacute" unicode="&#xda;" horiz-adv-x="1335" 
d="M156 463v971h170v-965q0 -151 96 -238q96 -86 248 -86q153 0 251 86q99 86 99 238v965h170v-971q0 -227 -146 -353t-372 -126q-111 0 -205 30q-198 64 -272 242q-39 90 -39 207zM971 1808l-236 -272h-121l185 272h172z" />
    <glyph glyph-name="Ucircumflex" unicode="&#xdb;" horiz-adv-x="1335" 
d="M156 463v971h170v-965q0 -151 96 -238q96 -86 248 -86q153 0 251 86q99 86 99 238v965h170v-971q0 -227 -146 -353t-372 -126q-111 0 -205 30q-198 64 -272 242q-39 90 -39 207zM668 1686l-125 -148h-121q61 92 123 186t123 185q60 -91 122 -185t123 -186h-120
q-31 37 -63 74t-62 74z" />
    <glyph glyph-name="Udieresis" unicode="&#xdc;" horiz-adv-x="1335" 
d="M156 463v971h170v-965q0 -151 96 -238q96 -86 248 -86q153 0 251 86q99 86 99 238v965h170v-971q0 -227 -146 -353t-372 -126q-111 0 -205 30q-198 64 -272 242q-39 90 -39 207zM401 1659q0 47 33 78t73 31t73 -32q32 -30 32 -77t-32 -77t-73 -30q-40 0 -73 30t-33 77z
M741 1659q0 47 33 78t73 31t73 -32q32 -30 32 -77t-32 -77t-73 -30q-40 0 -73 30t-33 77z" />
    <glyph glyph-name="Yacute" unicode="&#xdd;" horiz-adv-x="1306" 
d="M756 0h-209v553q-131 221 -261 440t-261 441h208q99 -166 197 -331t197 -331q6 -16 11 -32t11 -31h2q6 16 13 31q6 15 12 32q98 166 195 331t196 331h209l-520 -883v-551zM926 1808l-236 -272h-121l185 272h172z" />
    <glyph glyph-name="Thorn" unicode="&#xde;" horiz-adv-x="1026" 
d="M375 0h-170v1434h170v-338h168q172 0 328.5 -100.5t156.5 -287.5t-110.5 -297t-319.5 -110h-223v-301zM375 465h178q161 0 233 73t72 167t-87 162.5t-216 68.5h-180v-471z" />
    <glyph glyph-name="germandbls" unicode="&#xdf;" horiz-adv-x="1173" 
d="M580 147q56 0 106.5 23t88.5 60.5t60.5 88t22.5 137t-84.5 165.5t-195.5 79h-3l-2 82v84q70 0 117 40t47 109t-44 117t-111 48q-117 -6 -190 -89t-73 -235v-856h-169v684h-132v166h132v16q0 214 126.5 347t303.5 133q134 0 230.5 -96.5t96.5 -228.5t-90 -222
q94 -59 152.5 -156t58.5 -203q0 -196 -132 -327t-316 -131q-97 -1 -177 36l70 152q51 -23 107 -23z" />
    <glyph glyph-name="agrave" unicode="&#xe0;" horiz-adv-x="1128" 
d="M922 768v-768h-150v84q0 -6 -29 -32t-99 -48t-144 -22t-150 32t-131 86q-119 119 -119 283t120 284t292 119q93 0 184 -52q36 -20 56 -38t20 -24l8 96h142zM272 386q0 -101 67 -170t173 -69t173 69t67 170t-67 168t-173 67t-173 -67t-67 -168zM385 1253q47 -69 92 -137
t92 -135h-120q-59 69 -117 137t-119 135h172z" />
    <glyph glyph-name="aacute" unicode="&#xe1;" horiz-adv-x="1128" 
d="M922 768v-768h-150v84q0 -6 -29 -32t-99 -48t-144 -22t-150 32t-131 86q-119 119 -119 283t120 284t292 119q93 0 184 -52q36 -20 56 -38t20 -24l8 96h142zM272 386q0 -101 67 -170t173 -69t173 69t67 170t-67 168t-173 67t-173 -67t-67 -168zM831 1253l-235 -272h-121
l184 272h172z" />
    <glyph glyph-name="acircumflex" unicode="&#xe2;" horiz-adv-x="1128" 
d="M922 768v-768h-150v84q0 -6 -29 -32t-99 -48t-144 -22t-150 32t-131 86q-119 119 -119 283t120 284t292 119q93 0 184 -52q36 -20 56 -38t20 -24l8 96h142zM272 386q0 -101 67 -170t173 -69t173 69t67 170t-67 168t-173 67t-173 -67t-67 -168zM535 1128l-125 -147h-121
q61 91 123 185t123 186q61 -92 122 -186t123 -185h-121q-31 37 -63 74t-61 73z" />
    <glyph glyph-name="atilde" unicode="&#xe3;" horiz-adv-x="1128" 
d="M922 768v-768h-150v84q0 -6 -29 -32t-99 -48t-144 -22t-150 32t-131 86q-119 119 -119 283t120 284t292 119q93 0 184 -52q36 -20 56 -38t20 -24l8 96h142zM272 386q0 -101 67 -170t173 -69t173 69t67 170t-67 168t-173 67t-173 -67t-67 -168zM688 1010q93 0 109 94
l92 -6q-4 -80 -63 -129t-130 -49q-72 0 -151 65q-50 53 -107 53q-30 0 -66 -18t-42 -76l-92 6q4 80 61 130q58 50 115 50q92 0 168 -67q50 -53 106 -53z" />
    <glyph glyph-name="adieresis" unicode="&#xe4;" horiz-adv-x="1128" 
d="M922 768v-768h-150v84q0 -6 -29 -32t-99 -48t-144 -22t-150 32t-131 86q-119 119 -119 283t120 284t292 119q93 0 184 -52q36 -20 56 -38t20 -24l8 96h142zM272 386q0 -101 67 -170t173 -69t173 69t67 170t-67 168t-173 67t-173 -67t-67 -168zM260 1065q0 47 33 78t73 31
t72 -31t33 -78q0 -47 -33 -77q-32 -30 -72 -30t-73 30t-33 77zM600 1065q0 47 33 78t73 31t72 -31t33 -78q0 -47 -33 -77q-32 -30 -72 -30t-73 30t-33 77z" />
    <glyph glyph-name="aring" unicode="&#xe5;" horiz-adv-x="1128" 
d="M922 768v-768h-150v84q0 -6 -18.5 -22.5t-77 -48t-154.5 -31.5q-186 0 -304 119.5t-118 281.5t119 282.5t293 120.5q93 0 156 -35.5t83.5 -54t20.5 -24.5l8 96h142zM272 386q0 -101 67 -170t173 -69t173 69t67 170t-67 168t-173 67t-173 -67t-67 -168zM334 1106
q0 37 14 68.5t39 56t56.5 39t68.5 14.5t68.5 -14.5t56.5 -39t39 -56t14 -68.5t-14 -68.5t-39 -56.5t-56.5 -39t-68.5 -14t-68.5 14t-56.5 39t-39 56.5t-14 68.5zM446 1104q0 -29 18.5 -47.5t47.5 -18.5t48.5 18.5t19.5 47.5t-19.5 48t-48.5 19t-47.5 -19t-18.5 -48z" />
    <glyph glyph-name="ae" unicode="&#xe6;" horiz-adv-x="1288" 
d="M420 788q160 0 229 -45q90 45 172 45q147 0 245 -96t134 -243l-463 -173v-8q0 -49 -10 -96q46 -22 126 -22q81 0 142 65l105 -123q-108 -108 -260 -108q-109 0 -201 51q-76 -51 -230 -51t-237.5 55t-83.5 190q0 174 120 200t175 26h182v49q0 64 -28.5 91.5t-112.5 27.5
t-142.5 -24t-72.5 -34l-90 109q75 75 168.5 94.5t132.5 19.5zM260 221q0 -71 154 -71q107 0 129 22.5t22 52.5v54h-114q-191 0 -191 -58zM737 500v-45q61 23 123 45t123 45q-65 78 -133 78q-69 0 -119 -23q6 -43 6 -100z" />
    <glyph glyph-name="ccedilla" unicode="&#xe7;" horiz-adv-x="808" 
d="M311 -309q23 -76 109 -76q45 0 71.5 33t26.5 78t-22.5 68.5t-48 42t-48 39t-22.5 54.5v66q-133 32 -218 140.5t-85 262.5q0 153 119 270t278 117t272 -88l-106 -127q-66 49 -163 49t-163.5 -66.5t-66.5 -167.5t67 -169.5t165 -68.5t161 51l102 -129q-114 -88 -258 -88
q0 -61 82 -103.5t82 -169.5q0 -70 -45.5 -145.5t-169.5 -75.5q-70 0 -128 38t-85 116q23 12 47.5 24t46.5 25z" />
    <glyph glyph-name="egrave" unicode="&#xe8;" horiz-adv-x="923" 
d="M483 147q94 0 156 66l104 -123q-110 -110 -271 -109t-280 120t-119 287q1 167 121 283q120 117 289 115q127 0 226 -96t135 -244q-140 -51 -278 -102t-277 -102q68 -95 194 -95zM627 543q-65 78 -145 78q-81 0 -140 -41q-58 -42 -76 -90t-22 -89q96 35 191 71t192 71z
M291 1253q47 -69 92 -137t92 -135h-121q-59 69 -117 137t-118 135h172z" />
    <glyph glyph-name="eacute" unicode="&#xe9;" horiz-adv-x="923" 
d="M483 147q94 0 156 66l104 -123q-110 -110 -271 -109t-280 120t-119 287q1 167 121 283q120 117 289 115q127 0 226 -96t135 -244q-140 -51 -278 -102t-277 -102q68 -95 194 -95zM627 543q-65 78 -145 78q-81 0 -140 -41q-58 -42 -76 -90t-22 -89q96 35 191 71t192 71z
M805 1253l-236 -272h-120l184 272h172z" />
    <glyph glyph-name="ecircumflex" unicode="&#xea;" horiz-adv-x="923" 
d="M483 147q94 0 156 66l104 -123q-110 -110 -271 -109t-280 120t-119 287q1 167 121 283q120 117 289 115q127 0 226 -96t135 -244q-140 -51 -278 -102t-277 -102q68 -95 194 -95zM627 543q-65 78 -145 78q-81 0 -140 -41q-58 -42 -76 -90t-22 -89q96 35 191 71t192 71z
M475 1128l-125 -147h-121q61 91 123 185t123 186q61 -92 123 -186t123 -185h-121q-57 68 -125 147z" />
    <glyph glyph-name="edieresis" unicode="&#xeb;" horiz-adv-x="923" 
d="M483 147q94 0 156 66l104 -123q-110 -110 -271 -109t-280 120t-119 287q1 167 121 283q120 117 289 115q127 0 226 -96t135 -244q-140 -51 -278 -102t-277 -102q68 -95 194 -95zM627 543q-65 78 -145 78q-81 0 -140 -41q-58 -42 -76 -90t-22 -89q96 35 191 71t192 71z
M195 1065q0 47 32 78q33 31 73 31t73 -31t33 -78t-33 -77t-73 -30t-73 30q-32 30 -32 77zM535 1065q0 47 32 78q33 31 73 31t73 -31t33 -78t-34 -77q-32 -30 -72 -30t-73 30q-32 30 -32 77z" />
    <glyph glyph-name="igrave" unicode="&#xec;" horiz-adv-x="356" 
d="M55 1253q47 -68 92.5 -136t92.5 -136h-121q-59 68 -117.5 136.5t-118.5 135.5h172zM289 0h-170v768h170v-768z" />
    <glyph glyph-name="iacute" unicode="&#xed;" horiz-adv-x="397" 
d="M524 1253l-235 -272h-121l184 272h172zM289 0h-170v768h170v-768z" />
    <glyph glyph-name="icircumflex" unicode="&#xee;" horiz-adv-x="489" 
d="M238 1128l-125 -147h-121q61 92 123 185.5t123 185.5q61 -92 122.5 -185.5t122.5 -185.5h-121q-31 37 -62.5 74t-61.5 73zM324 0h-170v768h170v-768z" />
    <glyph glyph-name="idieresis" unicode="&#xef;" horiz-adv-x="555" 
d="M12 1065q0 47 33 78t73 31t72.5 -31t32.5 -78t-32.5 -77t-72.5 -30t-73 30t-33 77zM352 1065q0 47 33 78t73 31t72.5 -31t32.5 -78t-32.5 -77t-72.5 -30t-73 30t-33 77zM373 0h-170v768h170v-768z" />
    <glyph glyph-name="eth" unicode="&#xf0;" horiz-adv-x="1009" 
d="M387 979l-119 108l115 123q-90 104 -188 189l124 112q92 -72 185 -170l92 103l119 -105l-111 -120q219 -291 286 -562t7.5 -417.5t-170.5 -198t-239.5 -54.5t-252 111.5t-128.5 281.5q-5 166 111 285.5t288 125.5q66 2 131 -17q-51 155 -156 307zM685 565.5
q-69 65.5 -175 61.5q-107 -4 -171 -72t-62 -169t71.5 -168.5t175 -63.5t170 72.5t62.5 170.5q-2 103 -71 168.5z" />
    <glyph glyph-name="ntilde" unicode="&#xf1;" horiz-adv-x="1071" 
d="M168 768h149v-18q3 -50 7 -90t8 -89q41 99 132 157t207 58q115 0 185 -63t74 -166v-557h-170v479q-4 55 -40 95t-102 42q-119 4 -200 -69q-82 -73 -80 -174v-373h-170v768zM460 1026q-28 0 -65 -18t-43 -76l-92 6q4 79 62 130q58 50 114 50q92 0 168 -67q49 -52 107 -54
q95 0 108 95l92 -7q-4 -79 -61 -127t-114 -50q-58 0 -96 18t-73 47q-50 53 -107 53z" />
    <glyph glyph-name="ograve" unicode="&#xf2;" 
d="M311 217q67 -67 166 -69q98 -1 168 66t71 167t-68 169t-169 70t-167 -69q-68 -70 -68 -169q0 -98 67 -165zM776 669q119 -117 119 -283q0 -167 -120 -287t-292 -118q-173 1 -291 119t-118 287q0 168 120 284q120 117 292 116q171 -1 290 -118zM313 1253q47 -69 93 -137
t92 -135h-121q-59 69 -117 137t-119 135h172z" />
    <glyph glyph-name="oacute" unicode="&#xf3;" 
d="M311 217q67 -67 166 -69q98 -1 168 66t71 167t-68 169t-169 70t-167 -69q-68 -70 -68 -169q0 -98 67 -165zM776 669q119 -117 119 -283q0 -167 -120 -287t-292 -118q-173 1 -291 119t-118 287q0 168 120 284q120 117 292 116q171 -1 290 -118zM829 1253l-235 -272h-121
l184 272h172z" />
    <glyph glyph-name="ocircumflex" unicode="&#xf4;" 
d="M311 217q67 -67 166 -69q98 -1 168 66t71 167t-68 169t-169 70t-167 -69q-68 -70 -68 -169q0 -98 67 -165zM776 669q119 -117 119 -283q0 -167 -120 -287t-292 -118q-173 1 -291 119t-118 287q0 168 120 284q120 117 292 116q171 -1 290 -118zM475 1128l-125 -147h-121
q61 91 123 185t123 186q61 -92 123 -186t123 -185h-121q-57 68 -125 147z" />
    <glyph glyph-name="otilde" unicode="&#xf5;" 
d="M311 217q67 -67 166 -69q98 -1 168 66t71 167t-68 169t-169 70t-167 -69q-68 -70 -68 -169q0 -98 67 -165zM776 669q119 -117 119 -283q0 -167 -120 -287t-292 -118q-173 1 -291 119t-118 287q0 168 120 284q120 117 292 116q171 -1 290 -118zM817 1098q-4 -81 -62 -130
q-58 -48 -131 -48t-151 65q-50 53 -106 53q-29 0 -66 -18t-43 -76l-92 6q4 80 61 130q58 50 115 50q92 0 168 -67q50 -53 106 -53q96 0 109 94z" />
    <glyph glyph-name="odieresis" unicode="&#xf6;" 
d="M311 217q67 -67 166 -69q98 -1 168 66t71 167t-68 169t-169 70t-167 -69q-68 -70 -68 -169q0 -98 67 -165zM776 669q119 -117 119 -283q0 -167 -120 -287t-292 -118q-173 1 -291 119t-118 287q0 168 120 284q120 117 292 116q171 -1 290 -118zM207 1065q0 47 33 78
q32 31 72 31t73 -31t33 -78t-33 -77t-73 -30t-72 30t-33 77zM547 1065q0 47 33 78q32 31 72 31t73 -31t33 -78t-33 -77t-73 -30t-72 30t-33 77z" />
    <glyph glyph-name="divide" unicode="&#xf7;" horiz-adv-x="1026" 
d="M408 252q0 47 32.5 77.5t72.5 30.5t72.5 -30.5t32.5 -77.5t-32.5 -77t-72.5 -30t-72.5 30t-32.5 77zM408 764q0 47 32.5 77.5t72.5 30.5t72.5 -30.5t32.5 -77.5t-32.5 -77t-72.5 -30t-72.5 30t-32.5 77zM877 422h-738v166h738v-166z" />
    <glyph glyph-name="oslash" unicode="&#xf8;" 
d="M168 127q-94 111 -94 268t119 274t290 117q115 0 205 -53l76 88q68 -60 92 -82l-70 -82q109 -113 109 -275t-118 -281t-294 -119q-124 0 -223 65l-86 -100l-94 78zM483 147q106 0 173 69t67 162t-47 152l-307 -356q53 -27 114 -27zM244 400q0 -87 35 -144
q76 88 149.5 174t149.5 174q-45 16 -95 17q-106 0 -172.5 -67t-66.5 -154z" />
    <glyph glyph-name="ugrave" unicode="&#xf9;" horiz-adv-x="1083" 
d="M930 -18h-170v122l6 93q-41 -99 -132 -157t-207 -58q-115 0 -185 63t-74 166v557h170v-479q4 -55 40 -95t102 -42t113 16q99 37 144 129q23 45 23 98v373h170v-786zM430 1253q47 -69 92 -137t92 -135h-120q-60 69 -118 137t-118 135h172z" />
    <glyph glyph-name="uacute" unicode="&#xfa;" horiz-adv-x="1083" 
d="M930 -18h-170v122l6 93q-41 -99 -132 -157t-207 -58q-115 0 -185 63t-74 166v557h170v-479q4 -55 40 -95t102 -42t113 16q99 37 144 129q23 45 23 98v373h170v-786zM829 1253l-235 -272h-121l184 272h172z" />
    <glyph glyph-name="ucircumflex" unicode="&#xfb;" horiz-adv-x="1083" 
d="M930 -18h-170v122l6 93q-41 -99 -132 -157t-207 -58q-115 0 -185 63t-74 166v557h170v-479q4 -55 40 -95t102 -42t113 16q99 37 144 129q23 45 23 98v373h170v-786zM545 1128l-125 -147h-121q61 91 123 185t123 186q61 -92 123 -186t123 -185h-121q-31 37 -63 74t-62 73z
" />
    <glyph glyph-name="udieresis" unicode="&#xfc;" horiz-adv-x="1083" 
d="M930 -18h-170v122l6 93q-41 -99 -132 -157t-207 -58q-115 0 -185 63t-74 166v557h170v-479q4 -55 40 -95t102 -42t113 16q99 37 144 129q23 45 23 98v373h170v-786zM262 1065q0 47 33 78t73 31t72 -31t33 -78q0 -47 -33 -77q-32 -30 -72 -30t-73 30t-33 77zM602 1065
q0 47 33 78t73 31t72 -31t33 -78q0 -47 -33 -77q-32 -30 -72 -30t-73 30t-33 77z" />
    <glyph glyph-name="yacute" unicode="&#xfd;" horiz-adv-x="999" 
d="M997 768l-645 -1280h-170l258 512l-387 768h170q76 -150 163 -304t140 -312q49 140 115 265t108 201t78 150h170zM850 1253l-236 -272h-120l184 272h172z" />
    <glyph glyph-name="thorn" unicode="&#xfe;" horiz-adv-x="1140" 
d="M307 -512h-170v2048h170v-799q-4 -15 -10 -31t-10 -32q9 20 86 64t168 44q180 0 298.5 -118.5t118.5 -281.5t-118.5 -281.5t-279.5 -118.5t-255 79q-12 10 -16 17l18 -39v-551zM786 386q0 101 -66.5 168t-173 67t-173 -67t-66.5 -168t66.5 -170t173 -69t173 69t66.5 170z
" />
    <glyph glyph-name="ydieresis" unicode="&#xff;" horiz-adv-x="999" 
d="M997 768l-645 -1280h-170l258 512l-387 768h170q76 -150 163 -304t140 -312q49 140 115 265t108 201t78 150h170zM246 1065q0 47 33 78t73 31t72 -31q33 -31 33 -78t-33 -77t-73 -30q-41 0 -73 30t-32 77zM586 1065q0 47 32 78q33 31 73 31t73 -31t33 -78t-33 -77
t-73 -30t-73 30q-32 30 -32 77z" />
    <glyph glyph-name="endash" unicode="&#x2013;" horiz-adv-x="1042" 
d="M205 356v166h616v-166h-616z" />
    <glyph glyph-name="emdash" unicode="&#x2014;" horiz-adv-x="1433" 
d="M203 356v166h1028v-166h-1028z" />
    <glyph glyph-name="quoteleft" unicode="&#x2018;" horiz-adv-x="335" 
d="M170 1442q-28 -143 68 -234l-84 -49q-123 123 -91 297z" />
    <glyph glyph-name="quoteright" unicode="&#x2019;" horiz-adv-x="335" 
d="M139 1442l107 14q32 -175 -90 -297q-23 12 -42.5 24.5t-41.5 24.5q97 92 67 234z" />
    <glyph glyph-name="quotesinglbase" unicode="&#x201a;" horiz-adv-x="299" 
d="M106 174l107 14q32 -175 -90 -297q-23 12 -42.5 24.5t-41.5 25.5q96 92 67 233z" />
    <glyph glyph-name="quotedblleft" unicode="&#x201c;" horiz-adv-x="509" 
d="M170 1442q-28 -143 68 -234l-84 -49q-123 123 -91 297zM383 1442q-28 -143 68 -234l-84 -49q-123 123 -91 297z" />
    <glyph glyph-name="quotedblright" unicode="&#x201d;" horiz-adv-x="507" 
d="M303 1442l107 14q32 -174 -91 -297q-23 12 -42 24.5t-41 24.5q95 90 67 234zM90 1442l107 14q32 -174 -91 -297q-23 12 -42 24.5t-41 24.5q95 90 67 234z" />
    <glyph glyph-name="quotedblbase" unicode="&#x201e;" horiz-adv-x="698" 
d="M319 174l107 14q32 -175 -90 -297q-23 12 -42.5 24.5t-41.5 25.5q96 92 67 233zM106 174l107 14q32 -175 -90 -297q-23 12 -42.5 24.5t-41.5 25.5q96 92 67 233z" />
    <glyph glyph-name="bullet" unicode="&#x2022;" horiz-adv-x="980" 
d="M306.5 799.5q75.5 77.5 183.5 77.5t185 -77t77 -186t-76.5 -183.5t-185.5 -74.5t-184 75t-75 183t75.5 185.5z" />
    <glyph glyph-name="guilsinglleft" unicode="&#x2039;" horiz-adv-x="802" 
d="M457 489l133 -137v-194l-350 331q88 84 175 165t175 165v-194z" />
    <glyph glyph-name="guilsinglright" unicode="&#x203a;" horiz-adv-x="802" 
d="M240 819l350 -330l-350 -331v194l133 137q-31 31 -133 136v194z" />
    </font>
</defs>
</svg>
